<?xml version="1.0" encoding="UTF-8"?>
<svg width="160" height="160" viewBox="0 0 160 160" fill="none" xmlns="http://www.w3.org/2000/svg">
  <rect width="160" height="160" rx="20" fill="#F3F4F6"/>
  <path d="M40 60C40 55.5817 43.5817 52 48 52H112C116.418 52 120 55.5817 120 60V100C120 104.418 116.418 108 112 108H48C43.5817 108 40 104.418 40 100V60Z" stroke="#9CA3AF" stroke-width="4" fill="white"/>
  <path d="M40 60L80 88L120 60" stroke="#9CA3AF" stroke-width="4"/>
  <path d="M96 72C96 65.3726 90.6274 60 84 60C81.274 60 78.7218 60.8792 76.6663 62.4044C74.6108 60.8792 72.0586 60 69.3326 60C62.7052 60 57.3326 65.3726 57.3326 72C57.3326 79.4868 63.8899 84.5615 73.0628 91.9894L76.6663 94.9024L80.2699 91.9894C89.4428 84.5615 96 79.4868 96 72Z" fill="#F472B6"/>
</svg>
